# Blender v2.78 (sub 0) OBJ File: 'body.blend'
# www.blender.org
o Cylinder.002_Cylinder.003
v -0.173504 0.646718 1.785661
v -0.040508 0.615331 2.393917
v -0.171546 0.628451 1.782055
v -0.039179 0.602933 2.391469
v -0.173770 0.611368 1.781597
v -0.040689 0.591337 2.391158
v -0.179839 0.598069 1.784356
v -0.044808 0.582311 2.393031
v -0.188828 0.590579 1.789914
v -0.050910 0.577227 2.396803
v -0.199369 0.590038 1.797423
v -0.058064 0.576860 2.401900
v -0.209857 0.596529 1.805740
v -0.065183 0.581266 2.407545
v -0.218696 0.609064 1.813599
v -0.071182 0.589773 2.412880
v -0.224539 0.625733 1.819805
v -0.075148 0.601088 2.417092
v -0.226497 0.644000 1.823411
v -0.076478 0.613486 2.419539
v -0.224273 0.661083 1.823869
v -0.074968 0.625082 2.419850
v -0.218204 0.674382 1.821110
v -0.070848 0.634108 2.417977
v -0.209215 0.681872 1.815552
v -0.064747 0.639192 2.414205
v -0.198674 0.682413 1.808044
v -0.057592 0.639559 2.409109
v -0.188186 0.675922 1.799726
v -0.050474 0.635154 2.403463
v -0.179347 0.663388 1.791867
v -0.044475 0.626646 2.398129
vn 0.9682 0.1441 -0.2043
vn 0.9690 -0.1204 -0.2155
vn 0.8736 -0.4412 -0.2052
vn 0.5771 -0.8030 -0.1488
vn 0.0306 -0.9991 -0.0289
vn -0.4709 -0.8775 0.0910
vn -0.7543 -0.6354 0.1652
vn -0.8963 -0.3916 0.2080
vn -0.9607 -0.1492 0.2341
vn -0.9615 0.1185 0.2480
vn -0.8625 0.4440 0.2429
vn -0.5556 0.8091 0.1918
vn -0.0004 0.9975 0.0712
vn 0.4941 0.8677 -0.0541
vn 0.5807 -0.0973 0.8082
vn 0.7688 0.6255 -0.1331
vn 0.9060 0.3839 -0.1783
vn -0.5807 0.0973 -0.8082
vn -0.9615 0.1186 0.2480
vn 0.5808 -0.0973 0.8082
vn 0.5807 -0.0973 0.8083
vn -0.5808 0.0973 -0.8082
s off
f 1//1 4//1 3//1
f 3//2 6//2 5//2
f 6//3 7//3 5//3
f 8//4 9//4 7//4
f 10//5 11//5 9//5
f 12//6 13//6 11//6
f 14//7 15//7 13//7
f 16//8 17//8 15//8
f 18//9 19//9 17//9
f 20//10 21//10 19//10
f 21//11 24//11 23//11
f 23//12 26//12 25//12
f 25//13 28//13 27//13
f 27//14 30//14 29//14
f 16//15 14//15 6//15
f 29//16 32//16 31//16
f 31//17 2//17 1//17
f 21//18 29//18 31//18
f 1//1 2//1 4//1
f 3//2 4//2 6//2
f 6//3 8//3 7//3
f 8//4 10//4 9//4
f 10//5 12//5 11//5
f 12//6 14//6 13//6
f 14//7 16//7 15//7
f 16//8 18//8 17//8
f 18//9 20//9 19//9
f 20//19 22//19 21//19
f 21//11 22//11 24//11
f 23//12 24//12 26//12
f 25//13 26//13 28//13
f 27//14 28//14 30//14
f 6//20 4//20 16//20
f 2//20 32//20 20//20
f 30//21 28//21 24//21
f 26//20 24//20 28//20
f 22//15 20//15 32//15
f 18//15 16//15 4//15
f 14//20 12//20 6//20
f 10//21 8//21 12//21
f 4//20 2//20 18//20
f 30//15 24//15 22//15
f 20//21 18//21 2//21
f 12//15 8//15 6//15
f 32//20 30//20 22//20
f 29//16 30//16 32//16
f 31//17 32//17 2//17
f 31//18 1//18 17//18
f 3//22 5//22 15//22
f 7//22 9//22 11//22
f 11//18 13//18 7//18
f 15//22 17//22 1//22
f 19//18 21//18 31//18
f 23//22 25//22 27//22
f 27//18 29//18 23//18
f 1//18 3//18 15//18
f 7//18 13//18 5//18
f 17//22 19//22 31//22
f 23//18 29//18 21//18
f 5//22 13//22 15//22
o Cylinder.010_Cylinder.011
v -0.147141 0.629238 1.817523
v -0.150046 0.640696 1.819719
v -0.176057 0.607970 1.890243
v -0.178961 0.619428 1.892439
v -0.361081 0.549443 1.950877
v -0.363986 0.560900 1.953073
v -0.544267 0.499095 1.971266
v -0.547172 0.510553 1.973462
v -0.624757 0.475222 1.989359
v -0.627662 0.486680 1.991555
v -0.802665 0.430791 1.985862
v -0.805569 0.442248 1.988058
v -0.895107 0.412877 1.957054
v -0.898012 0.424335 1.959250
v -0.962497 0.397368 1.948836
v -0.965402 0.408825 1.951033
v -1.043871 0.384870 1.906412
v -1.046776 0.396328 1.908608
v -1.077887 0.386333 1.853787
v -1.080792 0.397790 1.855983
v -1.063494 0.399427 1.804505
v -1.066399 0.410885 1.806701
v -1.026350 0.415406 1.770267
v -1.029255 0.426863 1.772463
vn 0.9025 0.1515 0.4032
vn 0.3368 -0.0942 0.9369
vn 0.1498 -0.1493 0.9774
vn 0.2515 -0.1203 0.9603
vn 0.0261 -0.1818 0.9830
vn -0.2456 -0.2422 0.9386
vn -0.0718 -0.2053 0.9761
vn -0.4119 -0.2712 0.8699
vn -0.8044 -0.3020 0.5116
vn -0.9316 -0.1751 -0.3186
vn -0.2416 0.9530 0.1827
vn -0.6709 -0.0281 -0.7410
vn 0.0066 0.1898 -0.9818
vn 0.2416 -0.9530 -0.1827
s off
f 34//23 35//23 33//23
f 36//24 37//24 35//24
f 38//25 39//25 37//25
f 39//26 42//26 41//26
f 42//27 43//27 41//27
f 44//28 45//28 43//28
f 46//29 47//29 45//29
f 48//30 49//30 47//30
f 49//31 52//31 51//31
f 51//32 54//32 53//32
f 48//33 46//33 56//33
f 53//34 56//34 55//34
f 55//35 34//35 33//35
f 49//36 53//36 55//36
f 34//23 36//23 35//23
f 36//24 38//24 37//24
f 38//25 40//25 39//25
f 39//26 40//26 42//26
f 42//27 44//27 43//27
f 44//28 46//28 45//28
f 46//29 48//29 47//29
f 48//30 50//30 49//30
f 49//31 50//31 52//31
f 51//32 52//32 54//32
f 38//33 36//33 34//33
f 34//33 56//33 40//33
f 54//33 52//33 50//33
f 50//33 48//33 56//33
f 46//33 44//33 56//33
f 40//33 38//33 34//33
f 44//33 42//33 56//33
f 54//33 50//33 56//33
f 40//33 56//33 42//33
f 53//34 54//34 56//34
f 55//35 56//35 34//35
f 55//36 33//36 39//36
f 35//36 37//36 33//36
f 39//36 41//36 55//36
f 45//36 47//36 55//36
f 41//36 43//36 55//36
f 33//36 37//36 39//36
f 51//36 53//36 49//36
f 47//36 49//36 55//36
f 55//36 43//36 45//36
o Cylinder.011_Cylinder.012
v -0.177137 0.626553 1.900257
v -0.179901 0.638205 1.901317
v -0.188512 0.616603 1.979933
v -0.191277 0.628255 1.980993
v -0.353355 0.567623 2.088393
v -0.356120 0.579275 2.089454
v -0.525577 0.520567 2.156458
v -0.528342 0.532219 2.157519
v -0.599173 0.499560 2.195425
v -0.601937 0.511212 2.196485
v -0.771732 0.454706 2.238421
v -0.774497 0.466358 2.239481
v -0.867536 0.432379 2.233992
v -0.870300 0.444031 2.235053
v -0.934468 0.415638 2.243443
v -0.937233 0.427290 2.244503
v -1.022683 0.396604 2.222618
v -1.025447 0.408256 2.223679
v -1.067495 0.389913 2.179309
v -1.070260 0.401565 2.180369
v -1.064809 0.395340 2.126672
v -1.067574 0.406992 2.127733
v -1.036736 0.405973 2.083013
v -1.039501 0.417625 2.084074
vn 0.9630 0.2136 0.1642
vn 0.5383 0.0512 0.8412
vn 0.3670 0.0024 0.9302
vn 0.4613 0.0287 0.8868
vn 0.2488 -0.0291 0.9681
vn -0.0236 -0.0961 0.9951
vn 0.1527 -0.0536 0.9868
vn -0.1998 -0.1357 0.9704
vn -0.6603 -0.2220 0.7175
vn -0.9719 -0.2240 -0.0727
vn -0.2300 0.9692 0.0882
vn -0.8163 -0.1427 -0.5597
vn -0.2170 0.0373 -0.9755
vn 0.2300 -0.9692 -0.0882
vn -0.8163 -0.1428 -0.5597
s off
f 57//37 60//37 59//37
f 59//38 62//38 61//38
f 62//39 63//39 61//39
f 64//40 65//40 63//40
f 65//41 68//41 67//41
f 68//42 69//42 67//42
f 70//43 71//43 69//43
f 72//44 73//44 71//44
f 74//45 75//45 73//45
f 75//46 78//46 77//46
f 72//47 70//47 80//47
f 78//48 79//48 77//48
f 80//49 57//49 79//49
f 73//50 77//50 79//50
f 57//37 58//37 60//37
f 59//38 60//38 62//38
f 62//39 64//39 63//39
f 64//40 66//40 65//40
f 65//41 66//41 68//41
f 68//42 70//42 69//42
f 70//43 72//43 71//43
f 72//44 74//44 73//44
f 74//45 76//45 75//45
f 75//46 76//46 78//46
f 62//47 60//47 58//47
f 58//47 80//47 64//47
f 78//47 76//47 74//47
f 74//47 72//47 80//47
f 70//47 68//47 80//47
f 64//47 62//47 58//47
f 68//47 66//47 80//47
f 78//47 74//47 80//47
f 64//47 80//47 66//47
f 78//51 80//51 79//51
f 80//49 58//49 57//49
f 79//50 57//50 63//50
f 59//50 61//50 57//50
f 63//50 65//50 79//50
f 69//50 71//50 79//50
f 65//50 67//50 79//50
f 57//50 61//50 63//50
f 75//50 77//50 73//50
f 71//50 73//50 79//50
f 79//50 67//50 69//50
o Cylinder.012_Cylinder.013
v -0.163491 0.632681 2.004697
v -0.166323 0.644313 2.005807
v -0.163318 0.625018 2.085430
v -0.166150 0.636649 2.086540
v -0.310174 0.576663 2.217458
v -0.313005 0.588294 2.218568
v -0.470064 0.528856 2.310501
v -0.472896 0.540487 2.311611
v -0.536979 0.507834 2.360064
v -0.539811 0.519465 2.361174
v -0.700781 0.461444 2.428286
v -0.703613 0.473075 2.429396
v -0.795763 0.437385 2.438086
v -0.798594 0.449016 2.439196
v -0.860330 0.419824 2.457378
v -0.863162 0.431455 2.458488
v -0.950179 0.398674 2.449786
v -0.953011 0.410306 2.450897
v -1.000495 0.389892 2.413457
v -1.003327 0.401524 2.414567
v -1.005365 0.393729 2.360837
v -1.008197 0.405360 2.361948
v -0.983952 0.403474 2.313364
v -0.986784 0.415105 2.314474
vn 0.9719 0.2347 0.0202
vn 0.6502 0.0863 0.7548
vn 0.4942 0.0374 0.8685
vn 0.5809 0.0640 0.8114
vn 0.3832 0.0051 0.9236
vn 0.1188 -0.0656 0.9907
vn 0.2913 -0.0204 0.9564
vn -0.0582 -0.1089 0.9923
vn -0.5478 -0.2107 0.8096
vn -0.9675 -0.2424 0.0719
vn -0.2355 0.9675 0.0923
vn -0.8838 -0.1737 -0.4343
vn -0.3529 0.0034 -0.9356
vn 0.2355 -0.9675 -0.0923
vn 0.6502 0.0862 0.7548
vn -0.5478 -0.2106 0.8096
s off
f 82//52 83//52 81//52
f 83//53 86//53 85//53
f 85//54 88//54 87//54
f 87//55 90//55 89//55
f 89//56 92//56 91//56
f 91//57 94//57 93//57
f 94//58 95//58 93//58
f 95//59 98//59 97//59
f 97//60 100//60 99//60
f 99//61 102//61 101//61
f 96//62 94//62 104//62
f 102//63 103//63 101//63
f 104//64 81//64 103//64
f 97//65 101//65 103//65
f 82//52 84//52 83//52
f 83//66 84//66 86//66
f 85//54 86//54 88//54
f 87//55 88//55 90//55
f 89//56 90//56 92//56
f 91//57 92//57 94//57
f 94//58 96//58 95//58
f 95//59 96//59 98//59
f 97//67 98//67 100//67
f 99//61 100//61 102//61
f 86//62 84//62 82//62
f 82//62 104//62 88//62
f 102//62 100//62 98//62
f 98//62 96//62 104//62
f 94//62 92//62 104//62
f 88//62 86//62 82//62
f 92//62 90//62 104//62
f 102//62 98//62 104//62
f 88//62 104//62 90//62
f 102//63 104//63 103//63
f 104//64 82//64 81//64
f 103//65 81//65 87//65
f 83//65 85//65 81//65
f 87//65 89//65 103//65
f 93//65 95//65 103//65
f 89//65 91//65 103//65
f 81//65 85//65 87//65
f 99//65 101//65 97//65
f 95//65 97//65 103//65
f 103//65 91//65 93//65
o Cylinder.013_Cylinder.014
v -0.134420 0.614278 2.123958
v -0.137270 0.625891 2.125207
v -0.126517 0.607565 2.204389
v -0.129367 0.619178 2.205638
v -0.259642 0.559205 2.350248
v -0.262492 0.570818 2.351497
v -0.409439 0.510797 2.458531
v -0.412288 0.522409 2.459780
v -0.471112 0.489648 2.514434
v -0.473962 0.501261 2.515683
v -0.627168 0.442323 2.598365
v -0.630018 0.453936 2.599614
v -0.720508 0.417372 2.617378
v -0.723358 0.428985 2.618627
v -0.782750 0.399354 2.642888
v -0.785600 0.410966 2.644138
v -0.872660 0.377162 2.644073
v -0.875510 0.388775 2.645322
v -0.926083 0.367419 2.612771
v -0.928932 0.379032 2.614020
v -0.935956 0.370586 2.560812
v -0.938805 0.382199 2.562061
v -0.919247 0.379999 2.511421
v -0.922097 0.391612 2.512670
vn 0.9666 0.2452 -0.0745
vn 0.7177 0.1020 0.6889
vn 0.5737 0.0529 0.8173
vn 0.6543 0.0797 0.7520
vn 0.4688 0.0201 0.8831
vn 0.2128 -0.0527 0.9757
vn 0.3807 -0.0060 0.9247
vn 0.0373 -0.0978 0.9945
vn -0.4662 -0.2069 0.8601
vn -0.9535 -0.2518 0.1658
vn -0.2370 0.9659 0.1039
vn -0.9189 -0.1882 -0.3467
vn -0.4399 -0.0114 -0.8980
vn 0.2370 -0.9659 -0.1039
vn 0.0372 -0.0978 0.9945
s off
f 105//68 108//68 107//68
f 107//69 110//69 109//69
f 109//70 112//70 111//70
f 111//71 114//71 113//71
f 113//72 116//72 115//72
f 115//73 118//73 117//73
f 118//74 119//74 117//74
f 120//75 121//75 119//75
f 121//76 124//76 123//76
f 123//77 126//77 125//77
f 120//78 118//78 128//78
f 126//79 127//79 125//79
f 127//80 106//80 105//80
f 121//81 125//81 127//81
f 105//68 106//68 108//68
f 107//69 108//69 110//69
f 109//70 110//70 112//70
f 111//71 112//71 114//71
f 113//72 114//72 116//72
f 115//73 116//73 118//73
f 118//74 120//74 119//74
f 120//82 122//82 121//82
f 121//76 122//76 124//76
f 123//77 124//77 126//77
f 110//78 108//78 106//78
f 106//78 128//78 112//78
f 126//78 124//78 122//78
f 122//78 120//78 128//78
f 118//78 116//78 128//78
f 112//78 110//78 106//78
f 116//78 114//78 128//78
f 126//78 122//78 128//78
f 112//78 128//78 114//78
f 126//79 128//79 127//79
f 127//80 128//80 106//80
f 127//81 105//81 111//81
f 107//81 109//81 105//81
f 111//81 113//81 127//81
f 117//81 119//81 127//81
f 113//81 115//81 127//81
f 105//81 109//81 111//81
f 123//81 125//81 121//81
f 119//81 121//81 127//81
f 127//81 115//81 117//81
o Cylinder.014_Cylinder.015
v -0.103354 0.596043 2.221877
v -0.106009 0.607615 2.223768
v -0.082726 0.588032 2.299896
v -0.085382 0.599604 2.301786
v -0.190766 0.536397 2.464204
v -0.193422 0.547970 2.466094
v -0.321247 0.485240 2.594071
v -0.323902 0.496812 2.595961
v -0.373161 0.462770 2.658693
v -0.375816 0.474342 2.660583
v -0.513700 0.413065 2.765536
v -0.516356 0.424637 2.767426
v -0.602736 0.387213 2.798715
v -0.605391 0.398785 2.800605
v -0.660059 0.368378 2.833482
v -0.662715 0.379950 2.835372
v -0.748556 0.345606 2.848564
v -0.751212 0.357178 2.850455
v -0.806245 0.336054 2.825994
v -0.808901 0.347626 2.827884
v -0.824274 0.340030 2.776330
v -0.826929 0.351602 2.778221
v -0.815673 0.350375 2.725083
v -0.818328 0.361947 2.726974
vn 0.9415 0.2525 -0.2230
vn 0.8178 0.0950 0.5676
vn 0.6963 0.0428 0.7165
vn 0.7654 0.0712 0.6396
vn 0.6034 0.0082 0.7974
vn 0.3656 -0.0677 0.9283
vn 0.5231 -0.0191 0.8521
vn 0.1954 -0.1143 0.9740
vn -0.3227 -0.2243 0.9196
vn -0.9140 -0.2606 0.3109
vn -0.2209 0.9625 0.1572
vn -0.9617 -0.1881 -0.1994
vn -0.5772 0.0009 -0.8166
vn 0.2209 -0.9625 -0.1572
vn 0.6033 0.0082 0.7974
vn 0.5231 -0.0192 0.8521
vn -0.3226 -0.2243 0.9196
vn -0.9140 -0.2605 0.3109
s off
f 129//83 132//83 131//83
f 131//84 134//84 133//84
f 134//85 135//85 133//85
f 136//86 137//86 135//86
f 138//87 139//87 137//87
f 140//88 141//88 139//88
f 141//89 144//89 143//89
f 143//90 146//90 145//90
f 145//91 148//91 147//91
f 147//92 150//92 149//92
f 144//93 142//93 152//93
f 149//94 152//94 151//94
f 151//95 130//95 129//95
f 145//96 149//96 151//96
f 129//83 130//83 132//83
f 131//84 132//84 134//84
f 134//85 136//85 135//85
f 136//86 138//86 137//86
f 138//97 140//97 139//97
f 140//88 142//88 141//88
f 141//98 142//98 144//98
f 143//90 144//90 146//90
f 145//99 146//99 148//99
f 147//100 148//100 150//100
f 134//93 132//93 130//93
f 130//93 152//93 136//93
f 150//93 148//93 146//93
f 146//93 144//93 152//93
f 142//93 140//93 152//93
f 136//93 134//93 130//93
f 140//93 138//93 152//93
f 150//93 146//93 152//93
f 136//93 152//93 138//93
f 149//94 150//94 152//94
f 151//95 152//95 130//95
f 151//96 129//96 135//96
f 131//96 133//96 129//96
f 135//96 137//96 151//96
f 141//96 143//96 151//96
f 137//96 139//96 151//96
f 129//96 133//96 135//96
f 147//96 149//96 145//96
f 143//96 145//96 151//96
f 151//96 139//96 141//96
o Cylinder.016_Cylinder.017
v -0.080355 0.582118 2.313548
v -0.083335 0.593721 2.314572
v -0.051491 0.582842 2.389330
v -0.054470 0.594444 2.390354
v -0.139620 0.544402 2.568472
v -0.142599 0.556005 2.569496
v -0.253599 0.502126 2.715880
v -0.256578 0.513728 2.716904
v -0.297522 0.484522 2.787551
v -0.300501 0.496125 2.788575
v -0.423924 0.440985 2.913108
v -0.426903 0.452587 2.914132
v -0.507801 0.415490 2.957954
v -0.510780 0.427092 2.958978
v -0.560328 0.398264 3.000306
v -0.563307 0.409867 3.001330
v -0.645666 0.374006 3.026889
v -0.648645 0.385608 3.027913
v -0.704862 0.360152 3.011638
v -0.707841 0.371754 3.012662
v -0.728051 0.358399 2.964030
v -0.731030 0.370002 2.965054
v -0.725235 0.363768 2.911395
v -0.728214 0.375370 2.912419
vn 0.9011 0.2619 -0.3457
vn 0.8664 0.1814 0.4652
vn 0.7634 0.1404 0.6305
vn 0.8228 0.1632 0.5444
vn 0.6809 0.1109 0.7239
vn 0.4616 0.0403 0.8862
vn 0.6080 0.0865 0.7892
vn 0.2993 -0.0074 0.9541
vn -0.2160 -0.1407 0.9662
vn -0.8643 -0.2599 0.4306
vn -0.2478 0.9651 0.0852
vn -0.9673 -0.2417 -0.0764
vn -0.6573 -0.1029 -0.7466
vn 0.2478 -0.9651 -0.0852
vn -0.9674 -0.2416 -0.0764
s off
f 154//101 155//101 153//101
f 156//102 157//102 155//102
f 158//103 159//103 157//103
f 159//104 162//104 161//104
f 162//105 163//105 161//105
f 163//106 166//106 165//106
f 166//107 167//107 165//107
f 167//108 170//108 169//108
f 170//109 171//109 169//109
f 171//110 174//110 173//110
f 168//111 166//111 176//111
f 174//112 175//112 173//112
f 176//113 153//113 175//113
f 169//114 173//114 175//114
f 154//101 156//101 155//101
f 156//102 158//102 157//102
f 158//103 160//103 159//103
f 159//104 160//104 162//104
f 162//105 164//105 163//105
f 163//106 164//106 166//106
f 166//107 168//107 167//107
f 167//108 168//108 170//108
f 170//109 172//109 171//109
f 171//110 172//110 174//110
f 158//111 156//111 154//111
f 154//111 176//111 160//111
f 174//111 172//111 170//111
f 170//111 168//111 176//111
f 166//111 164//111 176//111
f 160//111 158//111 154//111
f 164//111 162//111 176//111
f 174//111 170//111 176//111
f 160//111 176//111 162//111
f 174//115 176//115 175//115
f 176//113 154//113 153//113
f 175//114 153//114 159//114
f 155//114 157//114 153//114
f 159//114 161//114 175//114
f 165//114 167//114 175//114
f 161//114 163//114 175//114
f 153//114 157//114 159//114
f 171//114 173//114 169//114
f 167//114 169//114 175//114
f 175//114 163//114 165//114
