# Blender v2.78 (sub 0) OBJ File: 'polygon.blend'
# www.blender.org
o Cube
v 1.000000 -1.000000 -1.000000
v 1.000000 -1.000000 1.000000
v -1.000000 -1.000000 1.000000
v -1.000000 -1.000000 -1.000000
v 1.000000 1.000000 -0.999999
v 0.999999 1.000000 1.000001
v -1.000000 1.000000 1.000000
v -1.000000 1.000000 -1.000000
v 0.999999 -1.000000 3.000000
v -1.000001 -1.000000 3.000000
v 0.999999 1.000000 3.000000
v -1.000001 1.000000 3.000000
v 0.999999 -1.000000 5.000000
v -1.000001 -1.000000 5.000000
v 0.999998 1.000000 5.000000
v -1.000002 1.000000 5.000000
v 3.000000 -1.000000 3.000000
v 2.999999 1.000000 3.000001
v 2.999999 -1.000000 5.000000
v 2.999998 1.000000 5.000001
v 5.000000 -0.999999 3.000001
v 4.999999 1.000001 3.000002
v 4.999999 -0.999999 5.000001
v 4.999998 1.000001 5.000002
v 3.000000 -0.999999 1.000000
v 3.000000 1.000001 1.000001
v 5.000000 -0.999998 1.000001
v 5.000000 1.000002 1.000002
v 3.000001 -0.999999 -1.000000
v 3.000000 1.000001 -0.999999
v 5.000000 -0.999998 -0.999999
v 5.000000 1.000002 -0.999998
v 4.999999 3.000001 1.000002
v 2.999999 3.000001 1.000001
v 4.999999 3.000002 -0.999998
v 3.000000 3.000001 -0.999999
v 4.999998 5.000001 1.000003
v 2.999998 5.000001 1.000002
v 4.999999 5.000002 -0.999997
v 2.999999 5.000001 -0.999998
v 1.000000 3.000000 -0.999999
v 0.999999 3.000000 1.000001
v -1.000000 3.000000 -1.000000
v -1.000000 3.000000 1.000000
v 1.000000 5.000000 -0.999999
v 0.999999 5.000000 1.000001
v -1.000000 5.000000 -1.000000
v -1.000000 5.000000 1.000000
v 0.999998 3.000000 3.000000
v -1.000001 3.000000 3.000000
v 0.999998 5.000000 3.000000
v -1.000001 5.000000 3.000000
v 4.999998 3.000001 3.000002
v 2.999998 3.000000 3.000001
v 4.999998 5.000001 3.000003
v 2.999998 5.000000 3.000002
v 4.999998 3.000000 5.000002
v 2.999997 3.000000 5.000001
v 4.999997 5.000000 5.000003
v 2.999997 5.000000 5.000002
v 0.999997 3.000000 5.000000
v -1.000002 3.000000 5.000000
v 0.999997 5.000000 5.000000
v -1.000002 5.000000 5.000000
v 0.999997 3.000000 5.000000
v -1.000002 3.000000 5.000000
v 0.999997 5.000000 5.000000
v -1.000002 5.000000 5.000000
v 0.999998 3.000000 3.000001
v 0.999998 5.000000 3.000001
v 0.999997 3.000000 5.000000
v 0.999997 5.000000 5.000001
vn 0.0000 -1.0000 0.0000
vn 1.0000 0.0000 0.0000
vn -1.0000 -0.0000 -0.0000
vn 0.0000 0.0000 -1.0000
vn -0.0000 1.0000 0.0000
vn 0.0000 -0.0000 1.0000
s off
f 2//1 4//1 1//1
f 5//2 42//2 6//2
f 5//2 2//2 1//2
f 3//3 12//3 7//3
f 3//3 8//3 4//3
f 1//4 8//4 5//4
f 11//5 16//5 15//5
f 6//2 9//2 2//2
f 2//1 10//1 3//1
f 6//5 12//5 11//5
f 15//6 14//6 13//6
f 9//1 19//1 13//1
f 10//3 16//3 12//3
f 9//1 14//1 10//1
f 20//5 22//5 18//5
f 11//4 17//4 9//4
f 11//5 20//5 18//5
f 13//6 20//6 15//6
f 22//2 23//2 21//2
f 22//5 26//5 18//5
f 19//1 21//1 23//1
f 19//6 24//6 20//6
f 26//6 33//6 34//6
f 17//3 26//3 25//3
f 17//1 27//1 21//1
f 21//2 28//2 22//2
f 30//4 31//4 29//4
f 26//3 29//3 25//3
f 25//1 31//1 27//1
f 27//2 32//2 28//2
f 34//3 40//3 36//3
f 26//3 36//3 30//3
f 28//2 35//2 33//2
f 30//4 35//4 32//4
f 38//5 39//5 40//5
f 36//4 39//4 35//4
f 35//2 37//2 33//2
f 38//3 54//3 56//3
f 44//3 47//3 43//3
f 7//3 43//3 8//3
f 8//4 41//4 5//4
f 6//6 44//6 7//6
f 47//5 46//5 45//5
f 43//4 45//4 41//4
f 44//3 52//3 48//3
f 41//2 46//2 42//2
f 50//3 64//3 52//3
f 48//5 51//5 46//5
f 46//2 49//2 42//2
f 44//1 49//1 50//1
f 55//2 57//2 53//2
f 38//5 55//5 37//5
f 37//2 53//2 33//2
f 33//1 54//1 34//1
f 57//6 60//6 58//6
f 55//5 60//5 59//5
f 56//5 72//5 60//5
f 53//1 58//1 54//1
f 64//6 66//6 68//6
f 49//1 62//1 50//1
f 52//5 63//5 51//5
f 65//6 68//6 66//6
f 62//6 65//6 66//6
f 61//6 67//6 65//6
f 63//6 68//6 67//6
f 60//6 71//6 58//6
f 58//1 69//1 54//1
f 54//4 70//4 56//4
f 2//1 3//1 4//1
f 5//2 41//2 42//2
f 5//2 6//2 2//2
f 3//3 10//3 12//3
f 3//3 7//3 8//3
f 1//4 4//4 8//4
f 11//5 12//5 16//5
f 6//2 11//2 9//2
f 2//1 9//1 10//1
f 6//5 7//5 12//5
f 15//6 16//6 14//6
f 9//1 17//1 19//1
f 10//3 14//3 16//3
f 9//1 13//1 14//1
f 20//5 24//5 22//5
f 11//4 18//4 17//4
f 11//5 15//5 20//5
f 13//6 19//6 20//6
f 22//2 24//2 23//2
f 22//5 28//5 26//5
f 19//1 17//1 21//1
f 19//6 23//6 24//6
f 26//6 28//6 33//6
f 17//3 18//3 26//3
f 17//1 25//1 27//1
f 21//2 27//2 28//2
f 30//4 32//4 31//4
f 26//3 30//3 29//3
f 25//1 29//1 31//1
f 27//2 31//2 32//2
f 34//3 38//3 40//3
f 26//3 34//3 36//3
f 28//2 32//2 35//2
f 30//4 36//4 35//4
f 38//5 37//5 39//5
f 36//4 40//4 39//4
f 35//2 39//2 37//2
f 38//3 34//3 54//3
f 44//3 48//3 47//3
f 7//3 44//3 43//3
f 8//4 43//4 41//4
f 6//6 42//6 44//6
f 47//5 48//5 46//5
f 43//4 47//4 45//4
f 44//3 50//3 52//3
f 41//2 45//2 46//2
f 50//3 62//3 64//3
f 48//5 52//5 51//5
f 46//2 51//2 49//2
f 44//1 42//1 49//1
f 55//2 59//2 57//2
f 38//5 56//5 55//5
f 37//2 55//2 53//2
f 33//1 53//1 54//1
f 57//6 59//6 60//6
f 55//5 56//5 60//5
f 56//5 70//5 72//5
f 53//1 57//1 58//1
f 64//6 62//6 66//6
f 49//1 61//1 62//1
f 52//5 64//5 63//5
f 65//6 67//6 68//6
f 62//6 61//6 65//6
f 61//6 63//6 67//6
f 63//6 64//6 68//6
f 60//6 72//6 71//6
f 58//1 71//1 69//1
f 54//4 69//4 70//4
